<svg width="87" height="40" viewBox="0 0 87 40" fill="none" xmlns="http://www.w3.org/2000/svg">
<path d="M12.5 19V7.552H8.072V6.4H18.26V7.552H13.832V19H12.5ZM23.1476 19.09C22.1636 19.09 21.2996 18.886 20.5556 18.478C19.8116 18.058 19.2296 17.488 18.8096 16.768C18.3896 16.036 18.1796 15.202 18.1796 14.266C18.1796 13.33 18.3776 12.502 18.7736 11.782C19.1816 11.062 19.7336 10.498 20.4296 10.09C21.1376 9.67 21.9296 9.46 22.8056 9.46C23.6936 9.46 24.4796 9.664 25.1636 10.072C25.8596 10.468 26.4056 11.032 26.8016 11.764C27.1976 12.484 27.3956 13.318 27.3956 14.266C27.3956 14.326 27.3896 14.392 27.3776 14.464C27.3776 14.524 27.3776 14.59 27.3776 14.662H19.1516V13.708H26.6936L26.1896 14.086C26.1896 13.402 26.0396 12.796 25.7396 12.268C25.4516 11.728 25.0556 11.308 24.5516 11.008C24.0476 10.708 23.4656 10.558 22.8056 10.558C22.1576 10.558 21.5756 10.708 21.0596 11.008C20.5436 11.308 20.1416 11.728 19.8536 12.268C19.5656 12.808 19.4216 13.426 19.4216 14.122V14.32C19.4216 15.04 19.5776 15.676 19.8896 16.228C20.2136 16.768 20.6576 17.194 21.2216 17.506C21.7976 17.806 22.4516 17.956 23.1836 17.956C23.7596 17.956 24.2936 17.854 24.7856 17.65C25.2896 17.446 25.7216 17.134 26.0816 16.714L26.8016 17.542C26.3816 18.046 25.8536 18.43 25.2176 18.694C24.5936 18.958 23.9036 19.09 23.1476 19.09ZM35.6552 19V16.912L35.6012 16.57V13.078C35.6012 12.274 35.3732 11.656 34.9172 11.224C34.4732 10.792 33.8072 10.576 32.9192 10.576C32.3072 10.576 31.7252 10.678 31.1732 10.882C30.6212 11.086 30.1532 11.356 29.7692 11.692L29.1932 10.738C29.6732 10.33 30.2492 10.018 30.9212 9.802C31.5932 9.574 32.3012 9.46 33.0452 9.46C34.2692 9.46 35.2112 9.766 35.8712 10.378C36.5432 10.978 36.8792 11.896 36.8792 13.132V19H35.6552ZM32.3972 19.09C31.6892 19.09 31.0712 18.976 30.5432 18.748C30.0272 18.508 29.6312 18.184 29.3552 17.776C29.0792 17.356 28.9412 16.876 28.9412 16.336C28.9412 15.844 29.0552 15.4 29.2832 15.004C29.5232 14.596 29.9072 14.272 30.4352 14.032C30.9752 13.78 31.6952 13.654 32.5952 13.654H35.8532V14.608H32.6312C31.7192 14.608 31.0832 14.77 30.7232 15.094C30.3752 15.418 30.2012 15.82 30.2012 16.3C30.2012 16.84 30.4112 17.272 30.8312 17.596C31.2512 17.92 31.8392 18.082 32.5952 18.082C33.3152 18.082 33.9332 17.92 34.4492 17.596C34.9772 17.26 35.3612 16.78 35.6012 16.156L35.8892 17.038C35.6492 17.662 35.2292 18.16 34.6292 18.532C34.0412 18.904 33.2972 19.09 32.3972 19.09ZM44.2744 19.09C43.3384 19.09 42.4984 18.886 41.7544 18.478C41.0224 18.058 40.4464 17.488 40.0264 16.768C39.6064 16.036 39.3964 15.202 39.3964 14.266C39.3964 13.318 39.6064 12.484 40.0264 11.764C40.4464 11.044 41.0224 10.48 41.7544 10.072C42.4984 9.664 43.3384 9.46 44.2744 9.46C45.0784 9.46 45.8044 9.616 46.4524 9.928C47.1004 10.24 47.6104 10.708 47.9824 11.332L47.0284 11.98C46.7044 11.5 46.3024 11.146 45.8224 10.918C45.3424 10.69 44.8204 10.576 44.2564 10.576C43.5844 10.576 42.9784 10.732 42.4384 11.044C41.8984 11.344 41.4724 11.77 41.1604 12.322C40.8484 12.874 40.6924 13.522 40.6924 14.266C40.6924 15.01 40.8484 15.658 41.1604 16.21C41.4724 16.762 41.8984 17.194 42.4384 17.506C42.9784 17.806 43.5844 17.956 44.2564 17.956C44.8204 17.956 45.3424 17.842 45.8224 17.614C46.3024 17.386 46.7044 17.038 47.0284 16.57L47.9824 17.218C47.6104 17.83 47.1004 18.298 46.4524 18.622C45.8044 18.934 45.0784 19.09 44.2744 19.09ZM55.1763 9.46C55.9443 9.46 56.6163 9.61 57.1923 9.91C57.7803 10.198 58.2363 10.642 58.5603 11.242C58.8963 11.842 59.0643 12.598 59.0643 13.51V19H57.7863V13.636C57.7863 12.64 57.5343 11.89 57.0303 11.386C56.5383 10.87 55.8423 10.612 54.9423 10.612C54.2703 10.612 53.6823 10.75 53.1783 11.026C52.6863 11.29 52.3023 11.68 52.0263 12.196C51.7623 12.7 51.6303 13.312 51.6303 14.032V19H50.3523V5.644H51.6303V12.142L51.3783 11.656C51.6783 10.972 52.1583 10.438 52.8183 10.054C53.4783 9.658 54.2643 9.46 55.1763 9.46ZM62.5164 19V9.55H63.7404V12.124L63.6144 11.674C63.8784 10.954 64.3224 10.408 64.9464 10.036C65.5704 9.652 66.3444 9.46 67.2684 9.46V10.702C67.2204 10.702 67.1724 10.702 67.1244 10.702C67.0764 10.69 67.0284 10.684 66.9804 10.684C65.9844 10.684 65.2044 10.99 64.6404 11.602C64.0764 12.202 63.7944 13.06 63.7944 14.176V19H62.5164ZM10.052 34V21.4H11.384V32.848H18.44V34H10.052ZM24.093 34.09C23.181 34.09 22.359 33.886 21.627 33.478C20.907 33.058 20.337 32.488 19.917 31.768C19.497 31.036 19.287 30.202 19.287 29.266C19.287 28.318 19.497 27.484 19.917 26.764C20.337 26.044 20.907 25.48 21.627 25.072C22.347 24.664 23.169 24.46 24.093 24.46C25.029 24.46 25.857 24.664 26.577 25.072C27.309 25.48 27.879 26.044 28.287 26.764C28.707 27.484 28.917 28.318 28.917 29.266C28.917 30.202 28.707 31.036 28.287 31.768C27.879 32.488 27.309 33.058 26.577 33.478C25.845 33.886 25.017 34.09 24.093 34.09ZM24.093 32.956C24.777 32.956 25.383 32.806 25.911 32.506C26.439 32.194 26.853 31.762 27.153 31.21C27.465 30.646 27.621 29.998 27.621 29.266C27.621 28.522 27.465 27.874 27.153 27.322C26.853 26.77 26.439 26.344 25.911 26.044C25.383 25.732 24.783 25.576 24.111 25.576C23.439 25.576 22.839 25.732 22.311 26.044C21.783 26.344 21.363 26.77 21.051 27.322C20.739 27.874 20.583 28.522 20.583 29.266C20.583 29.998 20.739 30.646 21.051 31.21C21.363 31.762 21.783 32.194 22.311 32.506C22.839 32.806 23.433 32.956 24.093 32.956ZM35.4321 34.09C34.6281 34.09 33.9261 33.94 33.3261 33.64C32.7261 33.34 32.2581 32.89 31.9221 32.29C31.5981 31.69 31.4361 30.94 31.4361 30.04V24.55H32.7141V29.896C32.7141 30.904 32.9601 31.666 33.4521 32.182C33.9561 32.686 34.6581 32.938 35.5581 32.938C36.2181 32.938 36.7881 32.806 37.2681 32.542C37.7601 32.266 38.1321 31.87 38.3841 31.354C38.6481 30.838 38.7801 30.22 38.7801 29.5V24.55H40.0581V34H38.8341V31.408L39.0321 31.876C38.7321 32.572 38.2641 33.118 37.6281 33.514C37.0041 33.898 36.2721 34.09 35.4321 34.09ZM48.4439 24.46C49.2119 24.46 49.8839 24.61 50.4599 24.91C51.0479 25.198 51.5039 25.642 51.8279 26.242C52.1639 26.842 52.3319 27.598 52.3319 28.51V34H51.0539V28.636C51.0539 27.64 50.8019 26.89 50.2979 26.386C49.8059 25.87 49.1099 25.612 48.2099 25.612C47.5379 25.612 46.9499 25.75 46.4459 26.026C45.9539 26.29 45.5699 26.68 45.2939 27.196C45.0299 27.7 44.8979 28.312 44.8979 29.032V34H43.6199V24.55H44.8439V27.142L44.6459 26.656C44.9459 25.972 45.4259 25.438 46.0859 25.054C46.7459 24.658 47.5319 24.46 48.4439 24.46ZM59.816 37.582C58.952 37.582 58.124 37.456 57.332 37.204C56.54 36.952 55.898 36.592 55.406 36.124L56.054 35.152C56.498 35.548 57.044 35.86 57.692 36.088C58.352 36.328 59.048 36.448 59.78 36.448C60.98 36.448 61.862 36.166 62.426 35.602C62.99 35.05 63.272 34.186 63.272 33.01V30.652L63.452 29.032L63.326 27.412V24.55H64.55V32.848C64.55 34.48 64.148 35.674 63.344 36.43C62.552 37.198 61.376 37.582 59.816 37.582ZM59.582 33.64C58.682 33.64 57.872 33.448 57.152 33.064C56.432 32.668 55.862 32.122 55.442 31.426C55.034 30.73 54.83 29.932 54.83 29.032C54.83 28.132 55.034 27.34 55.442 26.656C55.862 25.96 56.432 25.42 57.152 25.036C57.872 24.652 58.682 24.46 59.582 24.46C60.422 24.46 61.178 24.634 61.85 24.982C62.522 25.33 63.056 25.846 63.452 26.53C63.848 27.214 64.046 28.048 64.046 29.032C64.046 30.016 63.848 30.85 63.452 31.534C63.056 32.218 62.522 32.74 61.85 33.1C61.178 33.46 60.422 33.64 59.582 33.64ZM59.708 32.506C60.404 32.506 61.022 32.362 61.562 32.074C62.102 31.774 62.528 31.366 62.84 30.85C63.152 30.322 63.308 29.716 63.308 29.032C63.308 28.348 63.152 27.748 62.84 27.232C62.528 26.716 62.102 26.314 61.562 26.026C61.022 25.726 60.404 25.576 59.708 25.576C59.024 25.576 58.406 25.726 57.854 26.026C57.314 26.314 56.888 26.716 56.576 27.232C56.276 27.748 56.126 28.348 56.126 29.032C56.126 29.716 56.276 30.322 56.576 30.85C56.888 31.366 57.314 31.774 57.854 32.074C58.406 32.362 59.024 32.506 59.708 32.506ZM72.1202 34.09C71.1362 34.09 70.2722 33.886 69.5282 33.478C68.7842 33.058 68.2022 32.488 67.7822 31.768C67.3622 31.036 67.1522 30.202 67.1522 29.266C67.1522 28.33 67.3502 27.502 67.7462 26.782C68.1542 26.062 68.7062 25.498 69.4022 25.09C70.1102 24.67 70.9022 24.46 71.7782 24.46C72.6662 24.46 73.4522 24.664 74.1362 25.072C74.8322 25.468 75.3782 26.032 75.7742 26.764C76.1702 27.484 76.3682 28.318 76.3682 29.266C76.3682 29.326 76.3622 29.392 76.3502 29.464C76.3502 29.524 76.3502 29.59 76.3502 29.662H68.1242V28.708H75.6662L75.1622 29.086C75.1622 28.402 75.0122 27.796 74.7122 27.268C74.4242 26.728 74.0282 26.308 73.5242 26.008C73.0202 25.708 72.4382 25.558 71.7782 25.558C71.1302 25.558 70.5482 25.708 70.0322 26.008C69.5162 26.308 69.1142 26.728 68.8262 27.268C68.5382 27.808 68.3942 28.426 68.3942 29.122V29.32C68.3942 30.04 68.5502 30.676 68.8622 31.228C69.1862 31.768 69.6302 32.194 70.1942 32.506C70.7702 32.806 71.4242 32.956 72.1562 32.956C72.7322 32.956 73.2662 32.854 73.7582 32.65C74.2622 32.446 74.6942 32.134 75.0542 31.714L75.7742 32.542C75.3542 33.046 74.8262 33.43 74.1902 33.694C73.5662 33.958 72.8762 34.09 72.1202 34.09Z" fill="black"/>
<rect x="0.5" y="0.5" width="86" height="39" rx="5.5" stroke="black"/>
</svg>
