<svg width="224" height="111" viewBox="0 0 224 111" fill="none" xmlns="http://www.w3.org/2000/svg">
<rect x="1.5" y="1.5" width="221" height="108" rx="14.5" stroke="black" stroke-width="3"/>
<mask id="path-2-outside-1_326_2623" maskUnits="userSpaceOnUse" x="18" y="14" width="188" height="90" fill="black">
<rect fill="white" x="18" y="14" width="188" height="90"/>
<path d="M18.4102 18.2715V14.4121H45.502V18.2715H34.1523V51.0254H29.7598V18.2715H18.4102ZM59.543 51.584C56.7839 51.584 54.5579 51.1354 52.8652 50.2383C51.1725 49.3411 49.9368 47.9108 49.1582 45.9473C48.3965 43.9837 48.0156 41.3939 48.0156 38.1777C48.0156 33.6921 48.8366 30.332 50.4785 28.0977C52.1374 25.8633 55.0404 24.7461 59.1875 24.7461C62.0482 24.7461 64.2826 25.2539 65.8906 26.2695C67.4987 27.2682 68.6328 28.8086 69.293 30.8906C69.9531 32.9727 70.2832 35.6133 70.2832 38.8125H51.9766C51.9766 42.2487 52.5605 44.7116 53.7285 46.2012C54.9134 47.6738 56.8854 48.4102 59.6445 48.4102C61.8958 48.4102 63.5124 48.0801 64.4941 47.4199C65.4928 46.7428 66.026 45.5833 66.0938 43.9414H70.0801C70.0801 46.5482 69.2168 48.4779 67.4902 49.7305C65.7806 50.9661 63.1315 51.584 59.543 51.584ZM52.0273 35.918H66.3223C66.2546 33.8698 65.9837 32.2617 65.5098 31.0938C65.0527 29.9258 64.3164 29.0964 63.3008 28.6055C62.2852 28.1146 60.9141 27.8691 59.1875 27.8691C57.4609 27.8691 56.0814 28.1146 55.0488 28.6055C54.0332 29.0964 53.2884 29.9258 52.8145 31.0938C52.3574 32.2617 52.0951 33.8698 52.0273 35.918ZM80.5156 32.2617H76.9863C76.9863 29.7057 77.8073 27.8184 79.4492 26.5996C81.0911 25.3809 83.6217 24.7715 87.041 24.7715C90.5111 24.7715 93.0755 25.4062 94.7344 26.6758C96.4102 27.9453 97.248 29.9004 97.248 32.541V45.6426C97.248 46.7767 97.4173 47.5215 97.7559 47.877C98.0944 48.2324 98.7715 48.3678 99.7871 48.2832V51.3809C99.4655 51.4993 99.1777 51.5671 98.9238 51.584C98.6699 51.6009 98.3652 51.6094 98.0098 51.6094C96.7741 51.6094 95.7754 51.2793 95.0137 50.6191C94.2689 49.959 93.8965 49.0872 93.8965 48.0039C93.0501 49.138 91.8568 50.0182 90.3164 50.6445C88.793 51.2708 87.0326 51.584 85.0352 51.584C82.1745 51.584 79.974 50.9154 78.4336 49.5781C76.8932 48.224 76.123 46.3112 76.123 43.8398C76.123 40.9961 77.0286 38.9733 78.8398 37.7715C80.668 36.5527 83.7233 35.9434 88.0059 35.9434H93.3379V32.5156C93.3379 30.8568 92.8555 29.6803 91.8906 28.9863C90.9258 28.2754 89.3092 27.9199 87.041 27.9199C84.6882 27.9199 83.0124 28.2585 82.0137 28.9355C81.015 29.5957 80.5156 30.7044 80.5156 32.2617ZM93.3633 43.2559V38.8379H87.9805C85.1706 38.8379 83.1562 39.2188 81.9375 39.9805C80.7357 40.7253 80.1348 41.9863 80.1348 43.7637C80.1348 45.2702 80.6426 46.4212 81.6582 47.2168C82.6738 48.0124 84.1126 48.4102 85.9746 48.4102C88.3444 48.4102 90.1641 47.9701 91.4336 47.0898C92.7201 46.2096 93.3633 44.9316 93.3633 43.2559ZM122.766 43.1289H126.752C126.735 46.1758 125.956 48.3509 124.416 49.6543C122.876 50.9408 120.311 51.584 116.723 51.584C113.879 51.584 111.585 51.1354 109.842 50.2383C108.115 49.3411 106.854 47.9023 106.059 45.9219C105.28 43.9245 104.891 41.3092 104.891 38.0762C104.891 34.86 105.288 32.2786 106.084 30.332C106.88 28.3685 108.141 26.9466 109.867 26.0664C111.611 25.1693 113.904 24.7207 116.748 24.7207C120.1 24.7207 122.588 25.4147 124.213 26.8027C125.855 28.1738 126.701 30.2982 126.752 33.1758H122.766C122.63 31.263 122.089 29.9089 121.141 29.1133C120.21 28.3008 118.712 27.8945 116.646 27.8945C114.683 27.8945 113.134 28.2077 112 28.834C110.866 29.4603 110.062 30.5182 109.588 32.0078C109.114 33.4974 108.877 35.5371 108.877 38.127C108.877 40.7337 109.114 42.7904 109.588 44.2969C110.079 45.7865 110.908 46.8444 112.076 47.4707C113.244 48.097 114.835 48.4102 116.85 48.4102C118.965 48.4102 120.472 48.0208 121.369 47.2422C122.266 46.4466 122.732 45.0755 122.766 43.1289ZM133.988 51V14.3867H137.898V28.4023C138.745 27.1328 139.786 26.2103 141.021 25.6348C142.274 25.0423 144.102 24.7461 146.506 24.7461C149.79 24.7461 152.126 25.5671 153.514 27.209C154.919 28.834 155.621 31.5677 155.621 35.4102V51H151.711V35.4102C151.711 32.7526 151.22 30.8568 150.238 29.7227C149.273 28.5885 147.648 28.0215 145.363 28.0215C142.672 28.0215 140.751 28.6055 139.6 29.7734C138.465 30.9414 137.898 32.888 137.898 35.6133V51H133.988ZM174.664 51.584C171.905 51.584 169.679 51.1354 167.986 50.2383C166.294 49.3411 165.058 47.9108 164.279 45.9473C163.518 43.9837 163.137 41.3939 163.137 38.1777C163.137 33.6921 163.958 30.332 165.6 28.0977C167.258 25.8633 170.161 24.7461 174.309 24.7461C177.169 24.7461 179.404 25.2539 181.012 26.2695C182.62 27.2682 183.754 28.8086 184.414 30.8906C185.074 32.9727 185.404 35.6133 185.404 38.8125H167.098C167.098 42.2487 167.682 44.7116 168.85 46.2012C170.035 47.6738 172.007 48.4102 174.766 48.4102C177.017 48.4102 178.633 48.0801 179.615 47.4199C180.614 46.7428 181.147 45.5833 181.215 43.9414H185.201C185.201 46.5482 184.338 48.4779 182.611 49.7305C180.902 50.9661 178.253 51.584 174.664 51.584ZM167.148 35.918H181.443C181.376 33.8698 181.105 32.2617 180.631 31.0938C180.174 29.9258 179.438 29.0964 178.422 28.6055C177.406 28.1146 176.035 27.8691 174.309 27.8691C172.582 27.8691 171.202 28.1146 170.17 28.6055C169.154 29.0964 168.41 29.9258 167.936 31.0938C167.479 32.2617 167.216 33.8698 167.148 35.918ZM195.992 25.3301L196.475 29.3164C197.372 27.5052 198.582 26.2949 200.105 25.6855C201.629 25.0592 203.186 24.7461 204.777 24.7461H205.26V28.6309H204.701C202.856 28.6309 201.197 28.9948 199.725 29.7227C198.252 30.4505 197.245 31.6354 196.703 33.2773V51H192.793V25.3301H195.992ZM50.4531 93H28.8965V56.4121H33.3145V89.1406H50.4531V93ZM66.3477 93.584C63.5208 93.584 61.2357 93.1354 59.4922 92.2383C57.7656 91.3411 56.5046 89.9108 55.709 87.9473C54.9303 85.9668 54.541 83.3685 54.541 80.1523C54.541 76.9362 54.9303 74.3464 55.709 72.3828C56.5046 70.4193 57.7656 68.9889 59.4922 68.0918C61.2357 67.1947 63.5208 66.7461 66.3477 66.7461C69.2083 66.7461 71.5104 67.1947 73.2539 68.0918C74.9974 68.972 76.2669 70.3939 77.0625 72.3574C77.8581 74.304 78.2559 76.877 78.2559 80.0762C78.2559 83.3092 77.8581 85.9245 77.0625 87.9219C76.2669 89.9023 74.9974 91.3411 73.2539 92.2383C71.5104 93.1354 69.2083 93.584 66.3477 93.584ZM66.5 90.4102C68.4805 90.4102 70.0293 90.097 71.1465 89.4707C72.2806 88.8444 73.0846 87.7949 73.5586 86.3223C74.0326 84.8327 74.2695 82.793 74.2695 80.2031C74.2695 77.5964 74.0241 75.5482 73.5332 74.0586C73.0592 72.5521 72.2467 71.4857 71.0957 70.8594C69.9447 70.2331 68.362 69.9199 66.3477 69.9199C64.3672 69.9199 62.8099 70.2415 61.6758 70.8848C60.5417 71.5111 59.7292 72.5775 59.2383 74.084C58.7643 75.5736 58.5273 77.6302 58.5273 80.2539C58.5273 82.8268 58.7643 84.8581 59.2383 86.3477C59.7292 87.8203 60.5586 88.8698 61.7266 89.4961C62.8945 90.1055 64.4857 90.4102 66.5 90.4102ZM94.709 93.584C91.4928 93.584 89.1908 92.763 87.8027 91.1211C86.4316 89.4792 85.7461 86.7454 85.7461 82.9199V67.3301H89.6562V82.9199C89.6562 85.5775 90.1302 87.4733 91.0781 88.6074C92.026 89.7415 93.6172 90.3086 95.8516 90.3086C98.4922 90.3086 100.371 89.7246 101.488 88.5566C102.622 87.3887 103.189 85.4421 103.189 82.7168V67.3301H107.1V93H103.9L103.596 89.293C102.766 90.8333 101.666 91.9336 100.295 92.5938C98.9408 93.2539 97.0788 93.584 94.709 93.584ZM116.24 93V67.3301H119.439L119.744 71.0371C120.59 69.4798 121.708 68.3796 123.096 67.7363C124.484 67.0762 126.38 66.7461 128.783 66.7461C132.067 66.7461 134.403 67.5671 135.791 69.209C137.196 70.834 137.898 73.5677 137.898 77.4102V93H133.988V77.4102C133.988 74.7357 133.497 72.8398 132.516 71.7227C131.551 70.5885 129.926 70.0215 127.641 70.0215C124.949 70.0215 123.028 70.6055 121.877 71.7734C120.726 72.9414 120.15 74.888 120.15 77.6133V93H116.24ZM156.764 103.334C153.294 103.334 150.721 102.733 149.045 101.531C147.369 100.346 146.514 98.5182 146.48 96.0469H150.467C150.518 97.5365 151.017 98.5944 151.965 99.2207C152.93 99.847 154.512 100.16 156.713 100.16C158.744 100.16 160.301 99.8978 161.385 99.373C162.468 98.8483 163.213 97.9596 163.619 96.707C164.025 95.4544 164.229 93.7448 164.229 91.5781V89.9277C163.382 91.248 162.214 92.1452 160.725 92.6191C159.252 93.0762 157.534 93.3047 155.57 93.3047C151.948 93.3047 149.341 92.2806 147.75 90.2324C146.176 88.1673 145.389 84.7565 145.389 80C145.389 75.2435 146.184 71.8496 147.775 69.8184C149.367 67.7702 152.016 66.7461 155.723 66.7461C158.025 66.7461 159.853 67.0508 161.207 67.6602C162.578 68.2695 163.704 69.3021 164.584 70.7578L164.99 67.3301H167.986V91.4258C167.986 95.7083 167.123 98.7637 165.396 100.592C163.687 102.42 160.809 103.334 156.764 103.334ZM156.688 90.1055C158.651 90.1055 160.166 89.7754 161.232 89.1152C162.316 88.4382 163.061 87.3633 163.467 85.8906C163.89 84.401 164.102 82.4375 164.102 80C164.102 76.3268 163.56 73.7285 162.477 72.2051C161.41 70.6647 159.455 69.8945 156.611 69.8945C154.682 69.8945 153.192 70.2331 152.143 70.9102C151.11 71.5703 150.391 72.6367 149.984 74.1094C149.578 75.582 149.375 77.5456 149.375 80C149.375 82.4375 149.578 84.401 149.984 85.8906C150.391 87.3633 151.118 88.4382 152.168 89.1152C153.234 89.7754 154.741 90.1055 156.688 90.1055ZM187.131 93.584C184.372 93.584 182.146 93.1354 180.453 92.2383C178.76 91.3411 177.525 89.9108 176.746 87.9473C175.984 85.9837 175.604 83.3939 175.604 80.1777C175.604 75.6921 176.424 72.332 178.066 70.0977C179.725 67.8633 182.628 66.7461 186.775 66.7461C189.636 66.7461 191.87 67.2539 193.479 68.2695C195.087 69.2682 196.221 70.8086 196.881 72.8906C197.541 74.9727 197.871 77.6133 197.871 80.8125H179.564C179.564 84.2487 180.148 86.7116 181.316 88.2012C182.501 89.6738 184.473 90.4102 187.232 90.4102C189.484 90.4102 191.1 90.0801 192.082 89.4199C193.081 88.7428 193.614 87.5833 193.682 85.9414H197.668C197.668 88.5482 196.805 90.4779 195.078 91.7305C193.368 92.9661 190.719 93.584 187.131 93.584ZM179.615 77.918H193.91C193.842 75.8698 193.572 74.2617 193.098 73.0938C192.641 71.9258 191.904 71.0964 190.889 70.6055C189.873 70.1146 188.502 69.8691 186.775 69.8691C185.049 69.8691 183.669 70.1146 182.637 70.6055C181.621 71.0964 180.876 71.9258 180.402 73.0938C179.945 74.2617 179.683 75.8698 179.615 77.918Z"/>
</mask>
<path d="M18.4102 18.2715V14.4121H45.502V18.2715H34.1523V51.0254H29.7598V18.2715H18.4102ZM59.543 51.584C56.7839 51.584 54.5579 51.1354 52.8652 50.2383C51.1725 49.3411 49.9368 47.9108 49.1582 45.9473C48.3965 43.9837 48.0156 41.3939 48.0156 38.1777C48.0156 33.6921 48.8366 30.332 50.4785 28.0977C52.1374 25.8633 55.0404 24.7461 59.1875 24.7461C62.0482 24.7461 64.2826 25.2539 65.8906 26.2695C67.4987 27.2682 68.6328 28.8086 69.293 30.8906C69.9531 32.9727 70.2832 35.6133 70.2832 38.8125H51.9766C51.9766 42.2487 52.5605 44.7116 53.7285 46.2012C54.9134 47.6738 56.8854 48.4102 59.6445 48.4102C61.8958 48.4102 63.5124 48.0801 64.4941 47.4199C65.4928 46.7428 66.026 45.5833 66.0938 43.9414H70.0801C70.0801 46.5482 69.2168 48.4779 67.4902 49.7305C65.7806 50.9661 63.1315 51.584 59.543 51.584ZM52.0273 35.918H66.3223C66.2546 33.8698 65.9837 32.2617 65.5098 31.0938C65.0527 29.9258 64.3164 29.0964 63.3008 28.6055C62.2852 28.1146 60.9141 27.8691 59.1875 27.8691C57.4609 27.8691 56.0814 28.1146 55.0488 28.6055C54.0332 29.0964 53.2884 29.9258 52.8145 31.0938C52.3574 32.2617 52.0951 33.8698 52.0273 35.918ZM80.5156 32.2617H76.9863C76.9863 29.7057 77.8073 27.8184 79.4492 26.5996C81.0911 25.3809 83.6217 24.7715 87.041 24.7715C90.5111 24.7715 93.0755 25.4062 94.7344 26.6758C96.4102 27.9453 97.248 29.9004 97.248 32.541V45.6426C97.248 46.7767 97.4173 47.5215 97.7559 47.877C98.0944 48.2324 98.7715 48.3678 99.7871 48.2832V51.3809C99.4655 51.4993 99.1777 51.5671 98.9238 51.584C98.6699 51.6009 98.3652 51.6094 98.0098 51.6094C96.7741 51.6094 95.7754 51.2793 95.0137 50.6191C94.2689 49.959 93.8965 49.0872 93.8965 48.0039C93.0501 49.138 91.8568 50.0182 90.3164 50.6445C88.793 51.2708 87.0326 51.584 85.0352 51.584C82.1745 51.584 79.974 50.9154 78.4336 49.5781C76.8932 48.224 76.123 46.3112 76.123 43.8398C76.123 40.9961 77.0286 38.9733 78.8398 37.7715C80.668 36.5527 83.7233 35.9434 88.0059 35.9434H93.3379V32.5156C93.3379 30.8568 92.8555 29.6803 91.8906 28.9863C90.9258 28.2754 89.3092 27.9199 87.041 27.9199C84.6882 27.9199 83.0124 28.2585 82.0137 28.9355C81.015 29.5957 80.5156 30.7044 80.5156 32.2617ZM93.3633 43.2559V38.8379H87.9805C85.1706 38.8379 83.1562 39.2188 81.9375 39.9805C80.7357 40.7253 80.1348 41.9863 80.1348 43.7637C80.1348 45.2702 80.6426 46.4212 81.6582 47.2168C82.6738 48.0124 84.1126 48.4102 85.9746 48.4102C88.3444 48.4102 90.1641 47.9701 91.4336 47.0898C92.7201 46.2096 93.3633 44.9316 93.3633 43.2559ZM122.766 43.1289H126.752C126.735 46.1758 125.956 48.3509 124.416 49.6543C122.876 50.9408 120.311 51.584 116.723 51.584C113.879 51.584 111.585 51.1354 109.842 50.2383C108.115 49.3411 106.854 47.9023 106.059 45.9219C105.28 43.9245 104.891 41.3092 104.891 38.0762C104.891 34.86 105.288 32.2786 106.084 30.332C106.88 28.3685 108.141 26.9466 109.867 26.0664C111.611 25.1693 113.904 24.7207 116.748 24.7207C120.1 24.7207 122.588 25.4147 124.213 26.8027C125.855 28.1738 126.701 30.2982 126.752 33.1758H122.766C122.63 31.263 122.089 29.9089 121.141 29.1133C120.21 28.3008 118.712 27.8945 116.646 27.8945C114.683 27.8945 113.134 28.2077 112 28.834C110.866 29.4603 110.062 30.5182 109.588 32.0078C109.114 33.4974 108.877 35.5371 108.877 38.127C108.877 40.7337 109.114 42.7904 109.588 44.2969C110.079 45.7865 110.908 46.8444 112.076 47.4707C113.244 48.097 114.835 48.4102 116.85 48.4102C118.965 48.4102 120.472 48.0208 121.369 47.2422C122.266 46.4466 122.732 45.0755 122.766 43.1289ZM133.988 51V14.3867H137.898V28.4023C138.745 27.1328 139.786 26.2103 141.021 25.6348C142.274 25.0423 144.102 24.7461 146.506 24.7461C149.79 24.7461 152.126 25.5671 153.514 27.209C154.919 28.834 155.621 31.5677 155.621 35.4102V51H151.711V35.4102C151.711 32.7526 151.22 30.8568 150.238 29.7227C149.273 28.5885 147.648 28.0215 145.363 28.0215C142.672 28.0215 140.751 28.6055 139.6 29.7734C138.465 30.9414 137.898 32.888 137.898 35.6133V51H133.988ZM174.664 51.584C171.905 51.584 169.679 51.1354 167.986 50.2383C166.294 49.3411 165.058 47.9108 164.279 45.9473C163.518 43.9837 163.137 41.3939 163.137 38.1777C163.137 33.6921 163.958 30.332 165.6 28.0977C167.258 25.8633 170.161 24.7461 174.309 24.7461C177.169 24.7461 179.404 25.2539 181.012 26.2695C182.62 27.2682 183.754 28.8086 184.414 30.8906C185.074 32.9727 185.404 35.6133 185.404 38.8125H167.098C167.098 42.2487 167.682 44.7116 168.85 46.2012C170.035 47.6738 172.007 48.4102 174.766 48.4102C177.017 48.4102 178.633 48.0801 179.615 47.4199C180.614 46.7428 181.147 45.5833 181.215 43.9414H185.201C185.201 46.5482 184.338 48.4779 182.611 49.7305C180.902 50.9661 178.253 51.584 174.664 51.584ZM167.148 35.918H181.443C181.376 33.8698 181.105 32.2617 180.631 31.0938C180.174 29.9258 179.438 29.0964 178.422 28.6055C177.406 28.1146 176.035 27.8691 174.309 27.8691C172.582 27.8691 171.202 28.1146 170.17 28.6055C169.154 29.0964 168.41 29.9258 167.936 31.0938C167.479 32.2617 167.216 33.8698 167.148 35.918ZM195.992 25.3301L196.475 29.3164C197.372 27.5052 198.582 26.2949 200.105 25.6855C201.629 25.0592 203.186 24.7461 204.777 24.7461H205.26V28.6309H204.701C202.856 28.6309 201.197 28.9948 199.725 29.7227C198.252 30.4505 197.245 31.6354 196.703 33.2773V51H192.793V25.3301H195.992ZM50.4531 93H28.8965V56.4121H33.3145V89.1406H50.4531V93ZM66.3477 93.584C63.5208 93.584 61.2357 93.1354 59.4922 92.2383C57.7656 91.3411 56.5046 89.9108 55.709 87.9473C54.9303 85.9668 54.541 83.3685 54.541 80.1523C54.541 76.9362 54.9303 74.3464 55.709 72.3828C56.5046 70.4193 57.7656 68.9889 59.4922 68.0918C61.2357 67.1947 63.5208 66.7461 66.3477 66.7461C69.2083 66.7461 71.5104 67.1947 73.2539 68.0918C74.9974 68.972 76.2669 70.3939 77.0625 72.3574C77.8581 74.304 78.2559 76.877 78.2559 80.0762C78.2559 83.3092 77.8581 85.9245 77.0625 87.9219C76.2669 89.9023 74.9974 91.3411 73.2539 92.2383C71.5104 93.1354 69.2083 93.584 66.3477 93.584ZM66.5 90.4102C68.4805 90.4102 70.0293 90.097 71.1465 89.4707C72.2806 88.8444 73.0846 87.7949 73.5586 86.3223C74.0326 84.8327 74.2695 82.793 74.2695 80.2031C74.2695 77.5964 74.0241 75.5482 73.5332 74.0586C73.0592 72.5521 72.2467 71.4857 71.0957 70.8594C69.9447 70.2331 68.362 69.9199 66.3477 69.9199C64.3672 69.9199 62.8099 70.2415 61.6758 70.8848C60.5417 71.5111 59.7292 72.5775 59.2383 74.084C58.7643 75.5736 58.5273 77.6302 58.5273 80.2539C58.5273 82.8268 58.7643 84.8581 59.2383 86.3477C59.7292 87.8203 60.5586 88.8698 61.7266 89.4961C62.8945 90.1055 64.4857 90.4102 66.5 90.4102ZM94.709 93.584C91.4928 93.584 89.1908 92.763 87.8027 91.1211C86.4316 89.4792 85.7461 86.7454 85.7461 82.9199V67.3301H89.6562V82.9199C89.6562 85.5775 90.1302 87.4733 91.0781 88.6074C92.026 89.7415 93.6172 90.3086 95.8516 90.3086C98.4922 90.3086 100.371 89.7246 101.488 88.5566C102.622 87.3887 103.189 85.4421 103.189 82.7168V67.3301H107.1V93H103.9L103.596 89.293C102.766 90.8333 101.666 91.9336 100.295 92.5938C98.9408 93.2539 97.0788 93.584 94.709 93.584ZM116.24 93V67.3301H119.439L119.744 71.0371C120.59 69.4798 121.708 68.3796 123.096 67.7363C124.484 67.0762 126.38 66.7461 128.783 66.7461C132.067 66.7461 134.403 67.5671 135.791 69.209C137.196 70.834 137.898 73.5677 137.898 77.4102V93H133.988V77.4102C133.988 74.7357 133.497 72.8398 132.516 71.7227C131.551 70.5885 129.926 70.0215 127.641 70.0215C124.949 70.0215 123.028 70.6055 121.877 71.7734C120.726 72.9414 120.15 74.888 120.15 77.6133V93H116.24ZM156.764 103.334C153.294 103.334 150.721 102.733 149.045 101.531C147.369 100.346 146.514 98.5182 146.48 96.0469H150.467C150.518 97.5365 151.017 98.5944 151.965 99.2207C152.93 99.847 154.512 100.16 156.713 100.16C158.744 100.16 160.301 99.8978 161.385 99.373C162.468 98.8483 163.213 97.9596 163.619 96.707C164.025 95.4544 164.229 93.7448 164.229 91.5781V89.9277C163.382 91.248 162.214 92.1452 160.725 92.6191C159.252 93.0762 157.534 93.3047 155.57 93.3047C151.948 93.3047 149.341 92.2806 147.75 90.2324C146.176 88.1673 145.389 84.7565 145.389 80C145.389 75.2435 146.184 71.8496 147.775 69.8184C149.367 67.7702 152.016 66.7461 155.723 66.7461C158.025 66.7461 159.853 67.0508 161.207 67.6602C162.578 68.2695 163.704 69.3021 164.584 70.7578L164.99 67.3301H167.986V91.4258C167.986 95.7083 167.123 98.7637 165.396 100.592C163.687 102.42 160.809 103.334 156.764 103.334ZM156.688 90.1055C158.651 90.1055 160.166 89.7754 161.232 89.1152C162.316 88.4382 163.061 87.3633 163.467 85.8906C163.89 84.401 164.102 82.4375 164.102 80C164.102 76.3268 163.56 73.7285 162.477 72.2051C161.41 70.6647 159.455 69.8945 156.611 69.8945C154.682 69.8945 153.192 70.2331 152.143 70.9102C151.11 71.5703 150.391 72.6367 149.984 74.1094C149.578 75.582 149.375 77.5456 149.375 80C149.375 82.4375 149.578 84.401 149.984 85.8906C150.391 87.3633 151.118 88.4382 152.168 89.1152C153.234 89.7754 154.741 90.1055 156.688 90.1055ZM187.131 93.584C184.372 93.584 182.146 93.1354 180.453 92.2383C178.76 91.3411 177.525 89.9108 176.746 87.9473C175.984 85.9837 175.604 83.3939 175.604 80.1777C175.604 75.6921 176.424 72.332 178.066 70.0977C179.725 67.8633 182.628 66.7461 186.775 66.7461C189.636 66.7461 191.87 67.2539 193.479 68.2695C195.087 69.2682 196.221 70.8086 196.881 72.8906C197.541 74.9727 197.871 77.6133 197.871 80.8125H179.564C179.564 84.2487 180.148 86.7116 181.316 88.2012C182.501 89.6738 184.473 90.4102 187.232 90.4102C189.484 90.4102 191.1 90.0801 192.082 89.4199C193.081 88.7428 193.614 87.5833 193.682 85.9414H197.668C197.668 88.5482 196.805 90.4779 195.078 91.7305C193.368 92.9661 190.719 93.584 187.131 93.584ZM179.615 77.918H193.91C193.842 75.8698 193.572 74.2617 193.098 73.0938C192.641 71.9258 191.904 71.0964 190.889 70.6055C189.873 70.1146 188.502 69.8691 186.775 69.8691C185.049 69.8691 183.669 70.1146 182.637 70.6055C181.621 71.0964 180.876 71.9258 180.402 73.0938C179.945 74.2617 179.683 75.8698 179.615 77.918Z" fill="black"/>
<path d="M18.4102 18.2715H18.1602V18.5215H18.4102V18.2715ZM18.4102 14.4121V14.1621H18.1602V14.4121H18.4102ZM45.502 14.4121H45.752V14.1621H45.502V14.4121ZM45.502 18.2715V18.5215H45.752V18.2715H45.502ZM34.1523 18.2715V18.0215H33.9023V18.2715H34.1523ZM34.1523 51.0254V51.2754H34.4023V51.0254H34.1523ZM29.7598 51.0254H29.5098V51.2754H29.7598V51.0254ZM29.7598 18.2715H30.0098V18.0215H29.7598V18.2715ZM18.6602 18.2715V14.4121H18.1602V18.2715H18.6602ZM18.4102 14.6621H45.502V14.1621H18.4102V14.6621ZM45.252 14.4121V18.2715H45.752V14.4121H45.252ZM45.502 18.0215H34.1523V18.5215H45.502V18.0215ZM33.9023 18.2715V51.0254H34.4023V18.2715H33.9023ZM34.1523 50.7754H29.7598V51.2754H34.1523V50.7754ZM30.0098 51.0254V18.2715H29.5098V51.0254H30.0098ZM29.7598 18.0215H18.4102V18.5215H29.7598V18.0215ZM52.8652 50.2383L52.7482 50.4592L52.8652 50.2383ZM49.1582 45.9473L48.9251 46.0377L48.9258 46.0394L49.1582 45.9473ZM50.4785 28.0977L50.2778 27.9486L50.2771 27.9496L50.4785 28.0977ZM65.8906 26.2695L65.7571 26.4809L65.7587 26.4819L65.8906 26.2695ZM70.2832 38.8125V39.0625H70.5332V38.8125H70.2832ZM51.9766 38.8125V38.5625H51.7266V38.8125H51.9766ZM53.7285 46.2012L53.5318 46.3554L53.5337 46.3579L53.7285 46.2012ZM64.4941 47.4199L64.6336 47.6274L64.6344 47.6269L64.4941 47.4199ZM66.0938 43.9414V43.6914H65.8538L65.844 43.9311L66.0938 43.9414ZM70.0801 43.9414H70.3301V43.6914H70.0801V43.9414ZM67.4902 49.7305L67.6367 49.9331L67.637 49.9328L67.4902 49.7305ZM52.0273 35.918L51.7775 35.9097L51.7689 36.168H52.0273V35.918ZM66.3223 35.918V36.168H66.5807L66.5721 35.9097L66.3223 35.918ZM65.5098 31.0938L65.2769 31.1849L65.2781 31.1878L65.5098 31.0938ZM55.0488 28.6055L54.9415 28.3797L54.94 28.3804L55.0488 28.6055ZM52.8145 31.0938L52.5828 30.9997L52.5816 31.0026L52.8145 31.0938ZM59.543 51.334C56.8079 51.334 54.6266 50.8889 52.9823 50.0174L52.7482 50.4592C54.4893 51.382 56.7598 51.834 59.543 51.834V51.334ZM52.9823 50.0174C51.3476 49.151 50.1497 47.7695 49.3906 45.8551L48.9258 46.0394C49.724 48.0521 50.9974 49.5313 52.7482 50.4592L52.9823 50.0174ZM49.3913 45.8568C48.645 43.9332 48.2656 41.3776 48.2656 38.1777H47.7656C47.7656 41.4102 48.1479 44.0343 48.9251 46.0377L49.3913 45.8568ZM48.2656 38.1777C48.2656 33.7151 49.0837 30.4179 50.68 28.2457L50.2771 27.9496C48.5895 30.2461 47.7656 33.6691 47.7656 38.1777H48.2656ZM50.6792 28.2467C52.2712 26.1025 55.0791 24.9961 59.1875 24.9961V24.4961C55.0016 24.4961 52.0036 25.6241 50.2778 27.9486L50.6792 28.2467ZM59.1875 24.9961C62.0231 24.9961 64.2044 25.5002 65.7571 26.4809L66.0241 26.0582C64.3607 25.0076 62.0732 24.4961 59.1875 24.4961V24.9961ZM65.7587 26.4819C67.3085 27.4444 68.4096 28.9317 69.0547 30.9662L69.5313 30.8151C68.856 28.6855 67.6889 27.0921 66.0225 26.0572L65.7587 26.4819ZM69.0547 30.9662C69.7044 33.0153 70.0332 35.6282 70.0332 38.8125H70.5332C70.5332 35.5984 70.2019 32.93 69.5313 30.8151L69.0547 30.9662ZM70.2832 38.5625H51.9766V39.0625H70.2832V38.5625ZM51.7266 38.8125C51.7266 42.2645 52.3108 44.7982 53.5318 46.3554L53.9253 46.0469C52.8103 44.625 52.2266 42.2329 52.2266 38.8125H51.7266ZM53.5337 46.3579C54.7848 47.9128 56.8457 48.6602 59.6445 48.6602V48.1602C56.9251 48.1602 55.042 47.4349 53.9233 46.0445L53.5337 46.3579ZM59.6445 48.6602C61.9075 48.6602 63.5876 48.3308 64.6336 47.6274L64.3546 47.2125C63.4372 47.8294 61.8842 48.1602 59.6445 48.1602V48.6602ZM64.6344 47.6269C65.7207 46.8904 66.2738 45.6419 66.3435 43.9517L65.844 43.9311C65.7782 45.5248 65.265 46.5953 64.3539 47.213L64.6344 47.6269ZM66.0938 44.1914H70.0801V43.6914H66.0938V44.1914ZM69.8301 43.9414C69.8301 46.4881 68.9905 48.3332 67.3434 49.5281L67.637 49.9328C69.4431 48.6226 70.3301 46.6083 70.3301 43.9414H69.8301ZM67.3438 49.5279C65.6975 50.7178 63.112 51.334 59.543 51.334V51.834C63.151 51.834 65.8637 51.2145 67.6367 49.9331L67.3438 49.5279ZM52.0273 36.168H66.3223V35.668H52.0273V36.168ZM66.5721 35.9097C66.504 33.8482 66.2312 32.2067 65.7414 30.9997L65.2781 31.1878C65.7362 32.3167 66.0051 33.8914 66.0724 35.9262L66.5721 35.9097ZM65.7426 31.0026C65.2654 29.7831 64.4885 28.9018 63.4096 28.3804L63.192 28.8306C64.1443 29.2909 64.8401 30.0685 65.277 31.1849L65.7426 31.0026ZM63.4096 28.3804C62.3468 27.8667 60.9336 27.6191 59.1875 27.6191V28.1191C60.8945 28.1191 62.2235 28.3625 63.192 28.8306L63.4096 28.3804ZM59.1875 27.6191C57.441 27.6191 56.0203 27.8668 54.9415 28.3797L55.1562 28.8313C56.1425 28.3623 57.4808 28.1191 59.1875 28.1191V27.6191ZM54.94 28.3804C53.862 28.9015 53.0771 29.7816 52.5828 30.9997L53.0461 31.1878C53.4997 30.0699 54.2045 29.2913 55.1576 28.8306L54.94 28.3804ZM52.5816 31.0026C52.1098 32.2085 51.8456 33.8488 51.7775 35.9097L52.2772 35.9262C52.3445 33.8908 52.6051 32.3149 53.0473 31.1849L52.5816 31.0026ZM80.5156 32.2617V32.5117H80.7656V32.2617H80.5156ZM76.9863 32.2617H76.7363V32.5117H76.9863V32.2617ZM79.4492 26.5996L79.3002 26.3989L79.4492 26.5996ZM94.7344 26.6758L94.5824 26.8743L94.5834 26.8751L94.7344 26.6758ZM99.7871 48.2832H100.037V48.0115L99.7663 48.0341L99.7871 48.2832ZM99.7871 51.3809L99.8735 51.6154L100.037 51.5552V51.3809H99.7871ZM95.0137 50.6191L94.8478 50.8062L94.8499 50.8081L95.0137 50.6191ZM93.8965 48.0039H94.1465V47.2509L93.6961 47.8544L93.8965 48.0039ZM90.3164 50.6445L90.2222 50.4129L90.2214 50.4133L90.3164 50.6445ZM78.4336 49.5781L78.2685 49.7659L78.2697 49.7669L78.4336 49.5781ZM78.8398 37.7715L78.9781 37.9798L78.9785 37.9795L78.8398 37.7715ZM93.3379 35.9434V36.1934H93.5879V35.9434H93.3379ZM91.8906 28.9863L91.7423 29.1876L91.7446 29.1893L91.8906 28.9863ZM82.0137 28.9355L82.1515 29.1441L82.154 29.1425L82.0137 28.9355ZM93.3633 38.8379H93.6133V38.5879H93.3633V38.8379ZM81.9375 39.9805L82.0692 40.193L82.07 40.1925L81.9375 39.9805ZM91.4336 47.0898L91.2924 46.8835L91.2911 46.8844L91.4336 47.0898ZM80.5156 32.0117H76.9863V32.5117H80.5156V32.0117ZM77.2363 32.2617C77.2363 29.7629 78.0356 27.9602 79.5982 26.8004L79.3002 26.3989C77.579 27.6765 76.7363 29.6486 76.7363 32.2617H77.2363ZM79.5982 26.8004C81.1766 25.6288 83.6427 25.0215 87.041 25.0215V24.5215C83.6008 24.5215 81.0057 25.133 79.3002 26.3989L79.5982 26.8004ZM87.041 25.0215C90.4893 25.0215 92.9877 25.6539 94.5824 26.8743L94.8863 26.4772C93.1633 25.1586 90.5328 24.5215 87.041 24.5215V25.0215ZM94.5834 26.8751C96.181 28.0854 96.998 29.9565 96.998 32.541H97.498C97.498 29.8443 96.6393 27.8052 94.8853 26.4765L94.5834 26.8751ZM96.998 32.541V45.6426H97.498V32.541H96.998ZM96.998 45.6426C96.998 46.2202 97.041 46.7101 97.1312 47.1072C97.2208 47.5012 97.3618 47.8257 97.5748 48.0494L97.9369 47.7045C97.8114 47.5728 97.6985 47.3472 97.6188 46.9964C97.5397 46.6486 97.498 46.1991 97.498 45.6426H96.998ZM97.5748 48.0494C97.7913 48.2767 98.0994 48.4164 98.4686 48.4903C98.8382 48.5642 99.2867 48.5758 99.8079 48.5323L99.7663 48.0341C99.2719 48.0753 98.8741 48.0615 98.5666 48C98.2587 47.9384 98.0589 47.8327 97.9369 47.7045L97.5748 48.0494ZM99.5371 48.2832V51.3809H100.037V48.2832H99.5371ZM99.7007 51.1463C99.3943 51.2592 99.1306 51.3196 98.9072 51.3345L98.9405 51.8334C99.2249 51.8145 99.5367 51.7395 99.8735 51.6154L99.7007 51.1463ZM98.9072 51.3345C98.6605 51.351 98.3617 51.3594 98.0098 51.3594V51.8594C98.3688 51.8594 98.6793 51.8508 98.9405 51.8334L98.9072 51.3345ZM98.0098 51.3594C96.8201 51.3594 95.884 51.0426 95.1774 50.4302L94.8499 50.8081C95.6668 51.516 96.7281 51.8594 98.0098 51.8594V51.3594ZM95.1795 50.4321C94.4933 49.8239 94.1465 49.0228 94.1465 48.0039H93.6465C93.6465 49.1517 94.0444 50.0941 94.8478 50.8062L95.1795 50.4321ZM93.6961 47.8544C92.8815 48.946 91.7279 49.8008 90.2222 50.4129L90.4106 50.8761C91.9857 50.2357 93.2188 49.33 94.0968 48.1534L93.6961 47.8544ZM90.2214 50.4133C88.7337 51.0249 87.0067 51.334 85.0352 51.334V51.834C87.0584 51.834 88.8522 51.5168 90.4115 50.8758L90.2214 50.4133ZM85.0352 51.334C82.2106 51.334 80.077 50.6738 78.5975 49.3893L78.2697 49.7669C79.8709 51.157 82.1383 51.834 85.0352 51.834V51.334ZM78.5987 49.3904C77.1233 48.0933 76.373 46.2554 76.373 43.8398H75.873C75.873 46.367 76.6632 48.3546 78.2685 49.7659L78.5987 49.3904ZM76.373 43.8398C76.373 41.051 77.2577 39.1213 78.9781 37.9798L78.7016 37.5632C76.7996 38.8253 75.873 40.9412 75.873 43.8398H76.373ZM78.9785 37.9795C80.742 36.8039 83.7335 36.1934 88.0059 36.1934V35.6934C83.7132 35.6934 80.594 36.3016 78.7012 37.5635L78.9785 37.9795ZM88.0059 36.1934H93.3379V35.6934H88.0059V36.1934ZM93.5879 35.9434V32.5156H93.0879V35.9434H93.5879ZM93.5879 32.5156C93.5879 30.8105 93.0903 29.5413 92.0366 28.7834L91.7446 29.1893C92.6206 29.8194 93.0879 30.903 93.0879 32.5156H93.5879ZM92.0389 28.7851C91.007 28.0247 89.3218 27.6699 87.041 27.6699V28.1699C89.2967 28.1699 90.8446 28.5261 91.7423 29.1876L92.0389 28.7851ZM87.041 27.6699C84.678 27.6699 82.9373 28.0073 81.8734 28.7286L82.154 29.1425C83.0874 28.5096 84.6983 28.1699 87.041 28.1699V27.6699ZM81.8758 28.727C80.7864 29.4471 80.2656 30.6488 80.2656 32.2617H80.7656C80.7656 30.7601 81.2435 29.7443 82.1515 29.1441L81.8758 28.727ZM93.6133 43.2559V38.8379H93.1133V43.2559H93.6133ZM93.3633 38.5879H87.9805V39.0879H93.3633V38.5879ZM87.9805 38.5879C85.1609 38.5879 83.0863 38.9677 81.805 39.7685L82.07 40.1925C83.2262 39.4698 85.1803 39.0879 87.9805 39.0879V38.5879ZM81.8058 39.768C80.5111 40.5703 79.8848 41.9253 79.8848 43.7637H80.3848C80.3848 42.0473 80.9603 40.8802 82.0692 40.193L81.8058 39.768ZM79.8848 43.7637C79.8848 45.3325 80.4174 46.5624 81.504 47.4136L81.8124 47.02C80.8678 46.2801 80.3848 45.2078 80.3848 43.7637H79.8848ZM81.504 47.4136C82.5794 48.256 84.0808 48.6602 85.9746 48.6602V48.1602C84.1445 48.1602 82.7682 47.7687 81.8124 47.02L81.504 47.4136ZM85.9746 48.6602C88.3699 48.6602 90.2478 48.2162 91.576 47.2953L91.2911 46.8844C90.0803 47.7239 88.3189 48.1602 85.9746 48.1602V48.6602ZM91.5748 47.2962C92.9352 46.3654 93.6133 45.0068 93.6133 43.2559H93.1133C93.1133 44.8564 92.505 46.0539 91.2924 46.8835L91.5748 47.2962ZM122.766 43.1289V42.8789H122.52L122.516 43.1246L122.766 43.1289ZM126.752 43.1289L127.002 43.1303L127.003 42.8789H126.752V43.1289ZM124.416 49.6543L124.576 49.8462L124.577 49.8451L124.416 49.6543ZM109.842 50.2383L109.727 50.4601L109.727 50.4606L109.842 50.2383ZM106.059 45.9219L105.826 46.0127L105.827 46.0151L106.059 45.9219ZM106.084 30.332L106.315 30.4266L106.316 30.4259L106.084 30.332ZM109.867 26.0664L109.981 26.2891L109.982 26.2887L109.867 26.0664ZM124.213 26.8027L124.051 26.9928L124.053 26.9946L124.213 26.8027ZM126.752 33.1758V33.4258H127.006L127.002 33.1714L126.752 33.1758ZM122.766 33.1758L122.516 33.1934L122.533 33.4258H122.766V33.1758ZM121.141 29.1133L120.976 29.3017L120.98 29.3048L121.141 29.1133ZM109.588 44.2969L109.349 44.3719L109.35 44.3751L109.588 44.2969ZM121.369 47.2422L121.533 47.431L121.535 47.4292L121.369 47.2422ZM122.766 43.3789H126.752V42.8789H122.766V43.3789ZM126.502 43.1275C126.485 46.139 125.716 48.2271 124.255 49.4635L124.577 49.8451C126.197 48.4747 126.985 46.2126 127.002 43.1303L126.502 43.1275ZM124.256 49.4624C122.784 50.6914 120.294 51.334 116.723 51.334V51.834C120.329 51.834 122.967 51.1901 124.576 49.8462L124.256 49.4624ZM116.723 51.334C113.902 51.334 111.652 50.8886 109.956 50.016L109.727 50.4606C111.519 51.3823 113.856 51.834 116.723 51.834V51.334ZM109.957 50.0164C108.289 49.1496 107.066 47.7595 106.291 45.8287L105.827 46.0151C106.642 48.0452 107.942 49.5327 109.727 50.4601L109.957 50.0164ZM106.292 45.8311C105.528 43.8734 105.141 41.2924 105.141 38.0762H104.641C104.641 41.3261 105.032 43.9755 105.826 46.0127L106.292 45.8311ZM105.141 38.0762C105.141 34.877 105.537 32.3316 106.315 30.4266L105.853 30.2375C105.04 32.2257 104.641 34.843 104.641 38.0762H105.141ZM106.316 30.4259C107.091 28.5125 108.313 27.1394 109.981 26.2891L109.754 25.8437C107.968 26.7538 106.668 28.2244 105.852 30.2382L106.316 30.4259ZM109.982 26.2887C111.677 25.4161 113.927 24.9707 116.748 24.9707V24.4707C113.881 24.4707 111.544 24.9224 109.753 25.8441L109.982 26.2887ZM116.748 24.9707C120.072 24.9707 122.49 25.6602 124.051 26.9928L124.375 26.6126C122.685 25.1693 120.127 24.4707 116.748 24.4707V24.9707ZM124.053 26.9946C125.621 28.3046 126.452 30.3487 126.502 33.1802L127.002 33.1714C126.95 30.2476 126.088 28.0431 124.373 26.6108L124.053 26.9946ZM126.752 32.9258H122.766V33.4258H126.752V32.9258ZM123.015 33.1581C122.877 31.2142 122.324 29.7798 121.301 28.9218L120.98 29.3048C121.853 30.0379 122.383 31.3118 122.516 33.1934L123.015 33.1581ZM121.305 28.9249C120.306 28.0535 118.734 27.6445 116.646 27.6445V28.1445C118.689 28.1445 120.113 28.5481 120.976 29.3016L121.305 28.9249ZM116.646 27.6445C114.661 27.6445 113.065 27.9605 111.879 28.6151L112.121 29.0528C113.204 28.4548 114.705 28.1445 116.646 28.1445V27.6445ZM111.879 28.6151C110.678 29.2785 109.839 30.3948 109.35 31.932L109.826 32.0836C110.285 30.6416 111.054 29.6421 112.121 29.0528L111.879 28.6151ZM109.35 31.932C108.864 33.4569 108.627 35.5259 108.627 38.127H109.127C109.127 35.5483 109.363 33.5379 109.826 32.0836L109.35 31.932ZM108.627 38.127C108.627 40.7449 108.864 42.8305 109.349 44.3719L109.826 44.2218C109.363 42.7502 109.127 40.7225 109.127 38.127H108.627ZM109.35 44.3751C109.857 45.9137 110.723 47.029 111.958 47.691L112.194 47.2504C111.093 46.6598 110.3 45.6592 109.825 44.2186L109.35 44.3751ZM111.958 47.691C113.176 48.3443 114.814 48.6602 116.85 48.6602V48.1602C114.857 48.1602 113.312 47.8497 112.194 47.2504L111.958 47.691ZM116.85 48.6602C118.983 48.6602 120.566 48.27 121.533 47.431L121.205 47.0534C120.378 47.7716 118.948 48.1602 116.85 48.1602V48.6602ZM121.535 47.4292C122.509 46.5651 122.981 45.1076 123.016 43.1333L122.516 43.1246C122.482 45.0435 122.023 46.3281 121.203 47.0551L121.535 47.4292ZM133.988 51H133.738V51.25H133.988V51ZM133.988 14.3867V14.1367H133.738V14.3867H133.988ZM137.898 14.3867H138.148V14.1367H137.898V14.3867ZM137.898 28.4023H137.648V29.228L138.106 28.541L137.898 28.4023ZM141.021 25.6348L141.127 25.8614L141.128 25.8608L141.021 25.6348ZM153.514 27.209L153.323 27.3704L153.325 27.3725L153.514 27.209ZM155.621 51V51.25H155.871V51H155.621ZM151.711 51H151.461V51.25H151.711V51ZM150.238 29.7227L150.048 29.8847L150.049 29.8863L150.238 29.7227ZM139.6 29.7734L139.422 29.598L139.42 29.5993L139.6 29.7734ZM137.898 51V51.25H138.148V51H137.898ZM134.238 51V14.3867H133.738V51H134.238ZM133.988 14.6367H137.898V14.1367H133.988V14.6367ZM137.648 14.3867V28.4023H138.148V14.3867H137.648ZM138.106 28.541C138.93 27.305 139.938 26.4153 141.127 25.8614L140.916 25.4081C139.634 26.0053 138.559 26.9607 137.69 28.2637L138.106 28.541ZM141.128 25.8608C142.331 25.2917 144.116 24.9961 146.506 24.9961V24.4961C144.089 24.4961 142.217 24.7929 140.915 25.4088L141.128 25.8608ZM146.506 24.9961C149.755 24.9961 152.003 25.8089 153.323 27.3704L153.705 27.0476C152.249 25.3252 149.824 24.4961 146.506 24.4961V24.9961ZM153.325 27.3725C154.669 28.9279 155.371 31.5852 155.371 35.4102H155.871C155.871 31.5502 155.168 28.7401 153.703 27.0455L153.325 27.3725ZM155.371 35.4102V51H155.871V35.4102H155.371ZM155.621 50.75H151.711V51.25H155.621V50.75ZM151.961 51V35.4102H151.461V51H151.961ZM151.961 35.4102C151.961 32.7343 151.469 30.7625 150.427 29.559L150.049 29.8863C150.971 30.9511 151.461 32.7709 151.461 35.4102H151.961ZM150.429 29.5607C149.396 28.3464 147.682 27.7715 145.363 27.7715V28.2715C147.615 28.2715 149.151 28.8307 150.048 29.8847L150.429 29.5607ZM145.363 27.7715C142.646 27.7715 140.642 28.3594 139.422 29.598L139.778 29.9489C140.859 28.8515 142.698 28.2715 145.363 28.2715V27.7715ZM139.42 29.5993C138.219 30.8369 137.648 32.8642 137.648 35.6133H138.148C138.148 32.9119 138.712 31.046 139.779 29.9476L139.42 29.5993ZM137.648 35.6133V51H138.148V35.6133H137.648ZM137.898 50.75H133.988V51.25H137.898V50.75ZM167.986 50.2383L167.869 50.4592L167.986 50.2383ZM164.279 45.9473L164.046 46.0377L164.047 46.0394L164.279 45.9473ZM165.6 28.0977L165.399 27.9486L165.398 27.9496L165.6 28.0977ZM181.012 26.2695L180.878 26.4809L180.88 26.4819L181.012 26.2695ZM185.404 38.8125V39.0625H185.654V38.8125H185.404ZM167.098 38.8125V38.5625H166.848V38.8125H167.098ZM168.85 46.2012L168.653 46.3554L168.655 46.3579L168.85 46.2012ZM179.615 47.4199L179.755 47.6274L179.756 47.6269L179.615 47.4199ZM181.215 43.9414V43.6914H180.975L180.965 43.9311L181.215 43.9414ZM185.201 43.9414H185.451V43.6914H185.201V43.9414ZM182.611 49.7305L182.758 49.9331L182.758 49.9328L182.611 49.7305ZM167.148 35.918L166.899 35.9097L166.89 36.168H167.148V35.918ZM181.443 35.918V36.168H181.702L181.693 35.9097L181.443 35.918ZM180.631 31.0938L180.398 31.1849L180.399 31.1878L180.631 31.0938ZM170.17 28.6055L170.063 28.3797L170.061 28.3804L170.17 28.6055ZM167.936 31.0938L167.704 30.9997L167.703 31.0026L167.936 31.0938ZM174.664 51.334C171.929 51.334 169.748 50.8889 168.103 50.0174L167.869 50.4592C169.61 51.382 171.881 51.834 174.664 51.834V51.334ZM168.103 50.0174C166.469 49.151 165.271 47.7695 164.512 45.8551L164.047 46.0394C164.845 48.0521 166.119 49.5313 167.869 50.4592L168.103 50.0174ZM164.512 45.8568C163.766 43.9332 163.387 41.3776 163.387 38.1777H162.887C162.887 41.4102 163.269 44.0343 164.046 46.0377L164.512 45.8568ZM163.387 38.1777C163.387 33.7151 164.205 30.4179 165.801 28.2457L165.398 27.9496C163.711 30.2461 162.887 33.6691 162.887 38.1777H163.387ZM165.8 28.2467C167.392 26.1025 170.2 24.9961 174.309 24.9961V24.4961C170.123 24.4961 167.125 25.6241 165.399 27.9486L165.8 28.2467ZM174.309 24.9961C177.144 24.9961 179.325 25.5002 180.878 26.4809L181.145 26.0582C179.482 25.0076 177.194 24.4961 174.309 24.4961V24.9961ZM180.88 26.4819C182.43 27.4444 183.531 28.9317 184.176 30.9662L184.652 30.8151C183.977 28.6855 182.81 27.0921 181.144 26.0572L180.88 26.4819ZM184.176 30.9662C184.825 33.0153 185.154 35.6282 185.154 38.8125H185.654C185.654 35.5984 185.323 32.93 184.652 30.8151L184.176 30.9662ZM185.404 38.5625H167.098V39.0625H185.404V38.5625ZM166.848 38.8125C166.848 42.2645 167.432 44.7982 168.653 46.3554L169.046 46.0469C167.931 44.625 167.348 42.2329 167.348 38.8125H166.848ZM168.655 46.3579C169.906 47.9128 171.967 48.6602 174.766 48.6602V48.1602C172.046 48.1602 170.163 47.4349 169.044 46.0445L168.655 46.3579ZM174.766 48.6602C177.029 48.6602 178.709 48.3308 179.755 47.6274L179.476 47.2125C178.558 47.8294 177.005 48.1602 174.766 48.1602V48.6602ZM179.756 47.6269C180.842 46.8904 181.395 45.6419 181.465 43.9517L180.965 43.9311C180.899 45.5248 180.386 46.5953 179.475 47.213L179.756 47.6269ZM181.215 44.1914H185.201V43.6914H181.215V44.1914ZM184.951 43.9414C184.951 46.4881 184.112 48.3332 182.465 49.5281L182.758 49.9328C184.564 48.6226 185.451 46.6083 185.451 43.9414H184.951ZM182.465 49.5279C180.819 50.7178 178.233 51.334 174.664 51.334V51.834C178.272 51.834 180.985 51.2145 182.758 49.9331L182.465 49.5279ZM167.148 36.168H181.443V35.668H167.148V36.168ZM181.693 35.9097C181.625 33.8482 181.352 32.2067 180.863 30.9997L180.399 31.1878C180.857 32.3167 181.126 33.8914 181.193 35.9262L181.693 35.9097ZM180.864 31.0026C180.386 29.7831 179.61 28.9018 178.531 28.3804L178.313 28.8306C179.265 29.2909 179.961 30.0685 180.398 31.1849L180.864 31.0026ZM178.531 28.3804C177.468 27.8667 176.055 27.6191 174.309 27.6191V28.1191C176.016 28.1191 177.345 28.3625 178.313 28.8306L178.531 28.3804ZM174.309 27.6191C172.562 27.6191 171.141 27.8668 170.063 28.3797L170.277 28.8313C171.264 28.3623 172.602 28.1191 174.309 28.1191V27.6191ZM170.061 28.3804C168.983 28.9015 168.198 29.7816 167.704 30.9997L168.167 31.1878C168.621 30.0699 169.326 29.2913 170.279 28.8306L170.061 28.3804ZM167.703 31.0026C167.231 32.2085 166.967 33.8488 166.899 35.9097L167.398 35.9262C167.466 33.8908 167.726 32.3149 168.168 31.1849L167.703 31.0026ZM195.992 25.3301L196.24 25.3L196.214 25.0801H195.992V25.3301ZM196.475 29.3164L196.226 29.3464L196.327 30.1776L196.699 29.4274L196.475 29.3164ZM200.105 25.6855L200.198 25.9177L200.201 25.9168L200.105 25.6855ZM205.26 24.7461H205.51V24.4961H205.26V24.7461ZM205.26 28.6309V28.8809H205.51V28.6309H205.26ZM196.703 33.2773L196.466 33.199L196.453 33.2372V33.2773H196.703ZM196.703 51V51.25H196.953V51H196.703ZM192.793 51H192.543V51.25H192.793V51ZM192.793 25.3301V25.0801H192.543V25.3301H192.793ZM195.744 25.3601L196.226 29.3464L196.723 29.2864L196.24 25.3L195.744 25.3601ZM196.699 29.4274C197.575 27.658 198.744 26.4992 200.198 25.9177L200.013 25.4534C198.42 26.0906 197.168 27.3524 196.251 29.2054L196.699 29.4274ZM200.201 25.9168C201.695 25.3024 203.22 24.9961 204.777 24.9961V24.4961C203.152 24.4961 201.563 24.8161 200.01 25.4543L200.201 25.9168ZM204.777 24.9961H205.26V24.4961H204.777V24.9961ZM205.01 24.7461V28.6309H205.51V24.7461H205.01ZM205.26 28.3809H204.701V28.8809H205.26V28.3809ZM204.701 28.3809C202.822 28.3809 201.125 28.7517 199.614 29.4985L199.835 29.9468C201.27 29.2379 202.89 28.8809 204.701 28.8809V28.3809ZM199.614 29.4985C198.078 30.2578 197.027 31.4972 196.466 33.199L196.941 33.3557C197.462 31.7736 198.426 30.6433 199.835 29.9468L199.614 29.4985ZM196.453 33.2773V51H196.953V33.2773H196.453ZM196.703 50.75H192.793V51.25H196.703V50.75ZM193.043 51V25.3301H192.543V51H193.043ZM192.793 25.5801H195.992V25.0801H192.793V25.5801ZM50.4531 93V93.25H50.7031V93H50.4531ZM28.8965 93H28.6465V93.25H28.8965V93ZM28.8965 56.4121V56.1621H28.6465V56.4121H28.8965ZM33.3145 56.4121H33.5645V56.1621H33.3145V56.4121ZM33.3145 89.1406H33.0645V89.3906H33.3145V89.1406ZM50.4531 89.1406H50.7031V88.8906H50.4531V89.1406ZM50.4531 92.75H28.8965V93.25H50.4531V92.75ZM29.1465 93V56.4121H28.6465V93H29.1465ZM28.8965 56.6621H33.3145V56.1621H28.8965V56.6621ZM33.0645 56.4121V89.1406H33.5645V56.4121H33.0645ZM33.3145 89.3906H50.4531V88.8906H33.3145V89.3906ZM50.2031 89.1406V93H50.7031V89.1406H50.2031ZM59.4922 92.2383L59.3769 92.4601L59.3778 92.4606L59.4922 92.2383ZM55.709 87.9473L55.4763 88.0387L55.4773 88.0411L55.709 87.9473ZM55.709 72.3828L55.4773 72.2889L55.4766 72.2907L55.709 72.3828ZM59.4922 68.0918L59.3778 67.8695L59.3769 67.87L59.4922 68.0918ZM73.2539 68.0918L73.1395 68.3141L73.1412 68.315L73.2539 68.0918ZM77.0625 72.3574L76.8308 72.4513L76.8311 72.452L77.0625 72.3574ZM77.0625 87.9219L77.2945 88.0151L77.2948 88.0144L77.0625 87.9219ZM71.1465 89.4707L71.0256 89.2519L71.0242 89.2526L71.1465 89.4707ZM73.5586 86.3223L73.7966 86.3989L73.7968 86.3981L73.5586 86.3223ZM73.5332 74.0586L73.2947 74.1336L73.2958 74.1368L73.5332 74.0586ZM61.6758 70.8848L61.7966 71.1036L61.7991 71.1022L61.6758 70.8848ZM59.2383 74.084L59.0006 74.0065L59 74.0082L59.2383 74.084ZM59.2383 86.3477L59 86.4235L59.0011 86.4267L59.2383 86.3477ZM61.7266 89.4961L61.6084 89.7164L61.6109 89.7177L61.7266 89.4961ZM66.3477 93.334C63.5443 93.334 61.3025 92.8887 59.6066 92.016L59.3778 92.4606C61.1688 93.3822 63.4974 93.834 66.3477 93.834V93.334ZM59.6075 92.0164C57.9385 91.1493 56.7161 89.7671 55.9407 87.8534L55.4773 88.0411C56.2931 90.0546 57.5927 91.533 59.3769 92.4601L59.6075 92.0164ZM55.9416 87.8558C55.1788 85.9154 54.791 83.3516 54.791 80.1523H54.291C54.291 83.3854 54.6819 86.0182 55.4763 88.0387L55.9416 87.8558ZM54.791 80.1523C54.791 76.9529 55.1788 74.398 55.9414 72.475L55.4766 72.2907C54.6819 74.2947 54.291 76.9195 54.291 80.1523H54.791ZM55.9407 72.4767C56.7161 70.563 57.9385 69.1808 59.6075 68.3136L59.3769 67.87C57.5927 68.797 56.2931 70.2755 55.4773 72.2889L55.9407 72.4767ZM59.6066 68.3141C61.3025 67.4414 63.5443 66.9961 66.3477 66.9961V66.4961C63.4974 66.4961 61.1688 66.9479 59.3778 67.8695L59.6066 68.3141ZM66.3477 66.9961C69.1855 66.9961 71.4439 67.4416 73.1395 68.3141L73.3683 67.8695C71.5769 66.9477 69.2312 66.4961 66.3477 66.4961V66.9961ZM73.1412 68.315C74.826 69.1655 76.0559 70.5387 76.8308 72.4513L77.2942 72.2635C76.478 70.2491 75.1688 68.7785 73.3666 67.8686L73.1412 68.315ZM76.8311 72.452C77.6097 74.3571 78.0059 76.8942 78.0059 80.0762H78.5059C78.5059 76.8597 78.1064 74.2509 77.2939 72.2628L76.8311 72.452ZM78.0059 80.0762C78.0059 83.292 77.6097 85.8723 76.8302 87.8294L77.2948 88.0144C78.1064 85.9766 78.5059 83.3265 78.5059 80.0762H78.0059ZM76.8305 87.8287C76.0552 89.7587 74.8247 91.1489 73.1395 92.016L73.3683 92.4606C75.1701 91.5334 76.4786 90.046 77.2945 88.0151L76.8305 87.8287ZM73.1395 92.016C71.4439 92.8885 69.1855 93.334 66.3477 93.334V93.834C69.2312 93.834 71.5769 93.3823 73.3683 92.4606L73.1395 92.016ZM66.5 90.6602C68.5019 90.6602 70.0992 90.3444 71.2687 89.6888L71.0242 89.2526C69.9594 89.8496 68.459 90.1602 66.5 90.1602V90.6602ZM71.2673 89.6896C72.4677 89.0267 73.3071 87.9196 73.7966 86.3989L73.3206 86.2457C72.8621 87.6702 72.0935 88.6621 71.0256 89.2519L71.2673 89.6896ZM73.7968 86.3981C74.282 84.8732 74.5195 82.8042 74.5195 80.2031H74.0195C74.0195 82.7818 73.7831 84.7922 73.3204 86.2465L73.7968 86.3981ZM74.5195 80.2031C74.5195 77.5849 74.2735 75.5064 73.7706 73.9803L73.2958 74.1368C73.7746 75.59 74.0195 77.6078 74.0195 80.2031H74.5195ZM73.7717 73.9836C73.2825 72.4287 72.4344 71.3032 71.2152 70.6398L70.9762 71.079C72.0591 71.6682 72.836 72.6754 73.2947 74.1336L73.7717 73.9836ZM71.2152 70.6398C70.0129 69.9856 68.3833 69.6699 66.3477 69.6699V70.1699C68.3407 70.1699 69.8764 70.4805 70.9762 71.079L71.2152 70.6398ZM66.3477 69.6699C64.3446 69.6699 62.7388 69.9945 61.5524 70.6673L61.7991 71.1022C62.881 70.4886 64.3898 70.1699 66.3477 70.1699V69.6699ZM61.5549 70.6659C60.3536 71.3293 59.5065 72.4539 59.0006 74.0065L59.476 74.1614C59.9518 72.701 60.7298 71.6928 61.7966 71.1036L61.5549 70.6659ZM59 74.0082C58.5148 75.5333 58.2773 77.6194 58.2773 80.2539H58.7773C58.7773 77.641 59.0139 75.6138 59.4765 74.1598L59 74.0082ZM58.2773 80.2539C58.2773 82.8382 58.5149 84.8987 59 86.4235L59.4765 86.2719C59.0138 84.8175 58.7773 82.8154 58.7773 80.2539H58.2773ZM59.0011 86.4267C59.5085 87.9488 60.3747 89.0548 61.6084 89.7164L61.8447 89.2758C60.7425 88.6847 59.9498 87.6918 59.4755 86.2686L59.0011 86.4267ZM61.6109 89.7177C62.8285 90.353 64.4648 90.6602 66.5 90.6602V90.1602C64.5065 90.1602 62.9605 89.8579 61.8422 89.2744L61.6109 89.7177ZM87.8027 91.1211L87.6108 91.2813L87.6118 91.2825L87.8027 91.1211ZM85.7461 67.3301V67.0801H85.4961V67.3301H85.7461ZM89.6562 67.3301H89.9062V67.0801H89.6562V67.3301ZM101.488 88.5566L101.309 88.3825L101.308 88.3838L101.488 88.5566ZM103.189 67.3301V67.0801H102.939V67.3301H103.189ZM107.1 67.3301H107.35V67.0801H107.1V67.3301ZM107.1 93V93.25H107.35V93H107.1ZM103.9 93L103.651 93.0205L103.67 93.25H103.9V93ZM103.596 89.293L103.845 89.2725L103.776 88.4313L103.376 89.1744L103.596 89.293ZM100.295 92.5938L100.186 92.3685L100.185 92.369L100.295 92.5938ZM94.709 93.334C91.5293 93.334 89.3146 92.5222 87.9937 90.9597L87.6118 91.2825C89.067 93.0038 91.4563 93.834 94.709 93.834V93.334ZM87.9946 90.9609C86.681 89.3877 85.9961 86.7281 85.9961 82.9199H85.4961C85.4961 86.7627 86.1823 89.5706 87.6108 91.2813L87.9946 90.9609ZM85.9961 82.9199V67.3301H85.4961V82.9199H85.9961ZM85.7461 67.5801H89.6562V67.0801H85.7461V67.5801ZM89.4062 67.3301V82.9199H89.9062V67.3301H89.4062ZM89.4062 82.9199C89.4062 85.5944 89.8807 87.5646 90.8863 88.7677L91.2699 88.4471C90.3797 87.382 89.9062 85.5606 89.9062 82.9199H89.4062ZM90.8863 88.7677C91.9018 89.9827 93.5816 90.5586 95.8516 90.5586V90.0586C93.6528 90.0586 92.1503 89.5003 91.2699 88.4471L90.8863 88.7677ZM95.8516 90.5586C98.5189 90.5586 100.482 89.9703 101.669 88.7294L101.308 88.3838C100.26 89.4789 98.4655 90.0586 95.8516 90.0586V90.5586ZM101.668 88.7308C102.869 87.4932 103.439 85.4659 103.439 82.7168H102.939C102.939 85.4182 102.375 87.2841 101.309 88.3825L101.668 88.7308ZM103.439 82.7168V67.3301H102.939V82.7168H103.439ZM103.189 67.5801H107.1V67.0801H103.189V67.5801ZM106.85 67.3301V93H107.35V67.3301H106.85ZM107.1 92.75H103.9V93.25H107.1V92.75ZM104.15 92.9795L103.845 89.2725L103.347 89.3134L103.651 93.0205L104.15 92.9795ZM103.376 89.1744C102.567 90.6756 101.503 91.7346 100.186 92.3685L100.403 92.819C101.829 92.1326 102.965 90.9911 103.816 89.4115L103.376 89.1744ZM100.185 92.369C98.8794 93.0057 97.0603 93.334 94.709 93.334V93.834C97.0972 93.834 99.0022 93.5021 100.404 92.8185L100.185 92.369ZM116.24 93H115.99V93.25H116.24V93ZM116.24 67.3301V67.0801H115.99V67.3301H116.24ZM119.439 67.3301L119.689 67.3096L119.67 67.0801H119.439V67.3301ZM119.744 71.0371L119.495 71.0576L119.564 71.8928L119.964 71.1565L119.744 71.0371ZM123.096 67.7363L123.201 67.9632L123.203 67.9621L123.096 67.7363ZM135.791 69.209L135.6 69.3704L135.602 69.3725L135.791 69.209ZM137.898 93V93.25H138.148V93H137.898ZM133.988 93H133.738V93.25H133.988V93ZM132.516 71.7227L132.325 71.8847L132.328 71.8877L132.516 71.7227ZM120.15 93V93.25H120.4V93H120.15ZM116.49 93V67.3301H115.99V93H116.49ZM116.24 67.5801H119.439V67.0801H116.24V67.5801ZM119.19 67.3506L119.495 71.0576L119.993 71.0166L119.689 67.3096L119.19 67.3506ZM119.964 71.1565C120.789 69.6386 121.869 68.5803 123.201 67.9632L122.991 67.5095C121.546 68.1788 120.392 69.321 119.524 70.9177L119.964 71.1565ZM123.203 67.9621C124.544 67.3244 126.398 66.9961 128.783 66.9961V66.4961C126.361 66.4961 124.424 66.828 122.988 67.5106L123.203 67.9621ZM128.783 66.9961C132.033 66.9961 134.28 67.8089 135.6 69.3704L135.982 69.0476C134.526 67.3252 132.102 66.4961 128.783 66.4961V66.9961ZM135.602 69.3725C136.947 70.9279 137.648 73.5852 137.648 77.4102H138.148C138.148 73.5502 137.445 70.7401 135.98 69.0455L135.602 69.3725ZM137.648 77.4102V93H138.148V77.4102H137.648ZM137.898 92.75H133.988V93.25H137.898V92.75ZM134.238 93V77.4102H133.738V93H134.238ZM134.238 77.4102C134.238 74.7184 133.747 72.745 132.703 71.5576L132.328 71.8877C133.248 72.9347 133.738 74.7529 133.738 77.4102H134.238ZM132.706 71.5607C131.673 70.3464 129.96 69.7715 127.641 69.7715V70.2715C129.892 70.2715 131.429 70.8307 132.325 71.8847L132.706 71.5607ZM127.641 69.7715C124.923 69.7715 122.919 70.3594 121.699 71.598L122.055 71.9489C123.137 70.8515 124.975 70.2715 127.641 70.2715V69.7715ZM121.699 71.598C120.479 72.8355 119.9 74.8634 119.9 77.6133H120.4C120.4 74.9126 120.973 73.0473 122.055 71.9489L121.699 71.598ZM119.9 77.6133V93H120.4V77.6133H119.9ZM120.15 92.75H116.24V93.25H120.15V92.75ZM149.045 101.531L149.191 101.328L149.189 101.327L149.045 101.531ZM146.48 96.0469V95.7969H146.227L146.23 96.0503L146.48 96.0469ZM150.467 96.0469L150.717 96.0384L150.708 95.7969H150.467V96.0469ZM151.965 99.2207L151.827 99.4293L151.829 99.4304L151.965 99.2207ZM161.385 99.373L161.276 99.148L161.385 99.373ZM164.229 89.9277H164.479V89.0745L164.018 89.7928L164.229 89.9277ZM160.725 92.6191L160.799 92.8579L160.8 92.8574L160.725 92.6191ZM147.75 90.2324L147.551 90.384L147.553 90.3858L147.75 90.2324ZM147.775 69.8184L147.972 69.9725L147.973 69.9717L147.775 69.8184ZM161.207 67.6602L161.104 67.8881L161.105 67.8886L161.207 67.6602ZM164.584 70.7578L164.37 70.8872L164.747 71.5099L164.832 70.7872L164.584 70.7578ZM164.99 67.3301V67.0801H164.768L164.742 67.3007L164.99 67.3301ZM167.986 67.3301H168.236V67.0801H167.986V67.3301ZM165.396 100.592L165.215 100.42L165.214 100.421L165.396 100.592ZM161.232 89.1152L161.364 89.3278L161.365 89.3272L161.232 89.1152ZM163.467 85.8906L163.226 85.8223L163.226 85.8241L163.467 85.8906ZM162.477 72.2051L162.271 72.3474L162.273 72.35L162.477 72.2051ZM152.143 70.9102L152.277 71.1208L152.278 71.1202L152.143 70.9102ZM149.984 85.8906L149.743 85.9564L149.743 85.9571L149.984 85.8906ZM152.168 89.1152L152.032 89.3253L152.036 89.3278L152.168 89.1152ZM156.764 103.084C153.314 103.084 150.804 102.485 149.191 101.328L148.899 101.734C150.638 102.981 153.274 103.584 156.764 103.584V103.084ZM149.189 101.327C147.592 100.198 146.763 98.4533 146.73 96.0434L146.23 96.0503C146.265 98.5832 147.146 100.495 148.901 101.735L149.189 101.327ZM146.48 96.2969H150.467V95.7969H146.48V96.2969ZM150.217 96.0554C150.27 97.5981 150.791 98.745 151.827 99.4293L152.103 99.0121C151.243 98.4438 150.766 97.4748 150.717 96.0384L150.217 96.0554ZM151.829 99.4304C152.857 100.098 154.501 100.41 156.713 100.41V99.9102C154.524 99.9102 153.003 99.5963 152.101 99.011L151.829 99.4304ZM156.713 100.41C158.759 100.41 160.361 100.147 161.494 99.598L161.276 99.148C160.242 99.6487 158.729 99.9102 156.713 99.9102V100.41ZM161.494 99.598C162.644 99.0407 163.432 98.0948 163.857 96.7842L163.381 96.6299C162.994 97.8245 162.292 98.656 161.276 99.148L161.494 99.598ZM163.857 96.7842C164.275 95.4958 164.479 93.7564 164.479 91.5781H163.979C163.979 93.7332 163.776 95.4131 163.381 96.6299L163.857 96.7842ZM164.479 91.5781V89.9277H163.979V91.5781H164.479ZM164.018 89.7928C163.203 91.0642 162.083 91.9247 160.649 92.3809L160.8 92.8574C162.346 92.3657 163.561 91.4319 164.439 90.0627L164.018 89.7928ZM160.651 92.3804C159.207 92.8282 157.515 93.0547 155.57 93.0547V93.5547C157.552 93.5547 159.297 93.3241 160.799 92.8579L160.651 92.3804ZM155.57 93.0547C151.993 93.0547 149.474 92.0446 147.947 90.079L147.553 90.3858C149.208 92.5166 151.903 93.5547 155.57 93.5547V93.0547ZM147.949 90.0809C146.426 88.0829 145.639 84.7416 145.639 80H145.139C145.139 84.7715 145.926 88.2518 147.551 90.384L147.949 90.0809ZM145.639 80C145.639 75.2582 146.434 71.9357 147.972 69.9725L147.579 69.6642C145.934 71.7635 145.139 75.2288 145.139 80H145.639ZM147.973 69.9717C149.499 68.0075 152.058 66.9961 155.723 66.9961V66.4961C151.973 66.4961 149.234 67.5328 147.578 69.665L147.973 69.9717ZM155.723 66.9961C158.007 66.9961 159.795 67.299 161.104 67.8881L161.31 67.4322C159.91 66.8025 158.043 66.4961 155.723 66.4961V66.9961ZM161.105 67.8886C162.424 68.4745 163.513 69.4691 164.37 70.8872L164.798 70.6285C163.895 69.1351 162.732 68.0645 161.309 67.4317L161.105 67.8886ZM164.832 70.7872L165.238 67.3595L164.742 67.3007L164.336 70.7284L164.832 70.7872ZM164.99 67.5801H167.986V67.0801H164.99V67.5801ZM167.736 67.3301V91.4258H168.236V67.3301H167.736ZM167.736 91.4258C167.736 95.6862 166.875 98.6618 165.215 100.42L165.578 100.763C167.371 98.8656 168.236 95.7305 168.236 91.4258H167.736ZM165.214 100.421C163.574 102.175 160.781 103.084 156.764 103.084V103.584C160.837 103.584 163.8 102.665 165.579 100.763L165.214 100.421ZM156.688 90.3555C158.673 90.3555 160.242 90.0226 161.364 89.3278L161.101 88.9027C160.09 89.5282 158.629 89.8555 156.688 89.8555V90.3555ZM161.365 89.3272C162.511 88.6107 163.288 87.4776 163.708 85.9571L163.226 85.8241C162.833 87.2489 162.12 88.2656 161.1 88.9032L161.365 89.3272ZM163.707 85.9589C164.139 84.4382 164.352 82.449 164.352 80H163.852C163.852 82.426 163.641 84.3639 163.226 85.8223L163.707 85.9589ZM164.352 80C164.352 76.3169 163.811 73.6506 162.68 72.0602L162.273 72.35C163.309 73.8064 163.852 76.3367 163.852 80H164.352ZM162.682 72.0628C161.548 70.4252 159.493 69.6445 156.611 69.6445V70.1445C159.417 70.1445 161.272 70.9042 162.271 72.3474L162.682 72.0628ZM156.611 69.6445C154.658 69.6445 153.113 69.9863 152.007 70.7001L152.278 71.1202C153.271 70.4798 154.705 70.1445 156.611 70.1445V69.6445ZM152.008 70.6995C150.911 71.4006 150.162 72.526 149.743 74.0429L150.225 74.1759C150.619 72.7475 151.309 71.74 152.277 71.1208L152.008 70.6995ZM149.743 74.0429C149.329 75.5462 149.125 77.5349 149.125 80H149.625C149.625 77.5562 149.828 75.6178 150.225 74.1759L149.743 74.0429ZM149.125 80C149.125 82.4485 149.329 84.4367 149.743 85.9564L150.226 85.8248C149.828 84.3654 149.625 82.4265 149.625 80H149.125ZM149.743 85.9571C150.162 87.4751 150.92 88.6079 152.032 89.3253L152.303 88.9052C151.317 88.2684 150.619 87.2514 150.225 85.8241L149.743 85.9571ZM152.036 89.3278C153.158 90.0224 154.718 90.3555 156.688 90.3555V89.8555C154.764 89.8555 153.31 89.5284 152.3 88.9027L152.036 89.3278ZM180.453 92.2383L180.336 92.4592L180.453 92.2383ZM176.746 87.9473L176.513 88.0377L176.514 88.0394L176.746 87.9473ZM178.066 70.0977L177.866 69.9486L177.865 69.9496L178.066 70.0977ZM193.479 68.2695L193.345 68.4809L193.347 68.4819L193.479 68.2695ZM197.871 80.8125V81.0625H198.121V80.8125H197.871ZM179.564 80.8125V80.5625H179.314V80.8125H179.564ZM181.316 88.2012L181.12 88.3554L181.122 88.3579L181.316 88.2012ZM192.082 89.4199L192.222 89.6274L192.222 89.6268L192.082 89.4199ZM193.682 85.9414V85.6914H193.442L193.432 85.9311L193.682 85.9414ZM197.668 85.9414H197.918V85.6914H197.668V85.9414ZM195.078 91.7305L195.225 91.9331L195.225 91.9328L195.078 91.7305ZM179.615 77.918L179.365 77.9097L179.357 78.168H179.615V77.918ZM193.91 77.918V78.168H194.169L194.16 77.9097L193.91 77.918ZM193.098 73.0938L192.865 73.1849L192.866 73.1878L193.098 73.0938ZM182.637 70.6055L182.529 70.3797L182.528 70.3804L182.637 70.6055ZM180.402 73.0938L180.171 72.9997L180.17 73.0027L180.402 73.0938ZM187.131 93.334C184.396 93.334 182.214 92.8889 180.57 92.0174L180.336 92.4592C182.077 93.382 184.348 93.834 187.131 93.834V93.334ZM180.57 92.0174C178.936 91.151 177.738 89.7695 176.978 87.8551L176.514 88.0394C177.312 90.0521 178.585 91.5313 180.336 92.4592L180.57 92.0174ZM176.979 87.8568C176.233 85.9332 175.854 83.3776 175.854 80.1777H175.354C175.354 83.4102 175.736 86.0343 176.513 88.0377L176.979 87.8568ZM175.854 80.1777C175.854 75.7151 176.672 72.4179 178.268 70.2457L177.865 69.9496C176.177 72.2461 175.354 75.6691 175.354 80.1777H175.854ZM178.267 70.2467C179.859 68.1025 182.667 66.9961 186.775 66.9961V66.4961C182.59 66.4961 179.591 67.6241 177.866 69.9486L178.267 70.2467ZM186.775 66.9961C189.611 66.9961 191.792 67.5002 193.345 68.4809L193.612 68.0582C191.949 67.0076 189.661 66.4961 186.775 66.4961V66.9961ZM193.347 68.4819C194.896 69.4444 195.997 70.9317 196.643 72.9662L197.119 72.8151C196.444 70.6855 195.277 69.0921 193.61 68.0572L193.347 68.4819ZM196.643 72.9662C197.292 75.0153 197.621 77.6282 197.621 80.8125H198.121C198.121 77.5984 197.79 74.93 197.119 72.8151L196.643 72.9662ZM197.871 80.5625H179.564V81.0625H197.871V80.5625ZM179.314 80.8125C179.314 84.2645 179.899 86.7982 181.12 88.3554L181.513 88.0469C180.398 86.625 179.814 84.2329 179.814 80.8125H179.314ZM181.122 88.3579C182.373 89.9128 184.434 90.6602 187.232 90.6602V90.1602C184.513 90.1602 182.63 89.4349 181.511 88.0444L181.122 88.3579ZM187.232 90.6602C189.495 90.6602 191.175 90.3308 192.222 89.6274L191.943 89.2125C191.025 89.8294 189.472 90.1602 187.232 90.1602V90.6602ZM192.222 89.6268C193.309 88.8904 193.862 87.6419 193.931 85.9517L193.432 85.9311C193.366 87.5248 192.853 88.5953 191.942 89.213L192.222 89.6268ZM193.682 86.1914H197.668V85.6914H193.682V86.1914ZM197.418 85.9414C197.418 88.4881 196.578 90.3332 194.931 91.5281L195.225 91.9328C197.031 90.6226 197.918 88.6083 197.918 85.9414H197.418ZM194.932 91.5279C193.285 92.7178 190.7 93.334 187.131 93.334V93.834C190.739 93.834 193.452 93.2145 195.225 91.9331L194.932 91.5279ZM179.615 78.168H193.91V77.668H179.615V78.168ZM194.16 77.9097C194.092 75.8482 193.819 74.2067 193.329 72.9997L192.866 73.1878C193.324 74.3167 193.593 75.8914 193.66 77.9262L194.16 77.9097ZM193.33 73.0027C192.853 71.7831 192.076 70.9018 190.997 70.3804L190.78 70.8306C191.732 71.2909 192.428 72.0685 192.865 73.1848L193.33 73.0027ZM190.997 70.3804C189.935 69.8667 188.522 69.6191 186.775 69.6191V70.1191C188.482 70.1191 189.811 70.3625 190.78 70.8306L190.997 70.3804ZM186.775 69.6191C185.029 69.6191 183.608 69.8668 182.529 70.3797L182.744 70.8313C183.73 70.3623 185.069 70.1191 186.775 70.1191V69.6191ZM182.528 70.3804C181.45 70.9015 180.665 71.7816 180.171 72.9997L180.634 73.1878C181.088 72.0699 181.792 71.2913 182.746 70.8306L182.528 70.3804ZM180.17 73.0027C179.698 74.2085 179.434 75.8488 179.365 77.9097L179.865 77.9262C179.932 75.8908 180.193 74.3149 180.635 73.1848L180.17 73.0027Z" fill="black" mask="url(#path-2-outside-1_326_2623)"/>
</svg>
